<?xml version="1.0" encoding="UTF-8" standalone="no"?>
<svg
   version="1.1"
   id="Ebene_1"
   x="0px"
   y="0px"
   viewBox="-566.7274 -103 214.77145 202.38711"
   enable-background="new -566.7274 -103 1664.797 507.0414"
   xml:space="preserve"
   width="214.77145"
   height="202.38712"
   xmlns="http://www.w3.org/2000/svg"
   xmlns:svg="http://www.w3.org/2000/svg"><defs
   id="defs1893" />

<g
   id="g1888"
   transform="translate(-241.9666,-290.39849)">

<path
   fill="#20201e"
   stroke="#20201e"
   stroke-width="2.684"
   d="m -164.6231,212.1847 c 0,0 -3.4903,-18.7551 -3.4903,-21.3746 0,-2.6146 -2.6145,-3.0508 -5.2323,0.4393 -2.6177,3.4902 -14.3924,20.4987 -14.3924,20.4987 l 23.0923,0.409 z"
   id="path1858" />
	<path
   fill="#20201e"
   stroke="#20201e"
   stroke-width="2.684"
   d="m -321.1002,356.0554 c 1.1844,-8.4583 2.8004,-16.5201 4.7682,-24.1887 l 6.3214,-2.5224 -4.2214,-5.0448 c 2.4056,-8.1109 5.1999,-15.7427 8.2692,-22.9183 l 5.9788,-1.6929 -2.954,-5.0555 c 3.2122,-6.8268 6.6641,-13.1928 10.2462,-19.1207 l 5.5749,-1.1199 -1.9985,-4.604 c 4.0157,-6.1968 8.1418,-11.8564 12.2371,-16.9933 l 5.9005,-0.6467 -1.5761,-4.5961 c 4.7868,-5.6239 9.4537,-10.5168 13.7717,-14.6966 l 5.9052,-0.3318 -1.0308,-4.229 c 10.529,-9.5273 17.9686,-14.1637 17.9686,-14.1637 l 13.3756,4.0695 c 0,0 6.3951,-3.4903 11.6305,-6.9774 0,0 3.4871,-11.6304 4.6499,-18.0287 1.1644,-6.3951 4.6515,-3.4871 5.8143,-1.7436 1.166,1.7436 13.2312,15.1207 13.2312,15.1207 0,0 7.2171,-0.9908 12.3553,0 7.5579,1.4548 11.0497,6.5426 19.7738,14.8303 6.3614,6.0417 10.1773,11.3416 12.3569,17.0084 2.1798,5.6699 -0.4332,5.6699 0.4347,10.9021 0.8756,5.2354 24.4269,44.4857 27.0413,49.2835 2.6223,4.7959 8.9374,19.4724 -3.4871,28.7848 -3.4871,2.6207 -6.1094,3.9263 -8.2862,4.7991 0,0 -3.4903,-0.8726 -4.7959,-2.6146 -0.2335,-0.3134 -0.3533,-0.5039 -0.4102,-0.6083 -0.043,-0.1229 -0.0645,-0.1229 0,0 0.1337,0.341 0.4378,1.6161 -0.9002,3.2228 -2.1798,2.6207 -4.9818,2.4241 -6.5442,2.6207 -2.3242,0.2888 -6.5395,-1.7482 -10.0298,-6.9805 -3.4918,-5.2382 -5.6715,-6.9805 -8.2877,-10.0341 -2.6146,-3.0509 -17.0499,-9.807 -22.6817,-19.1899 -1.3073,-2.1752 -4.3595,-1.3058 -6.5395,0.4378 -2.1798,1.7466 -14.394,2.1829 -19.6262,-6.5426 0,0 -2.4733,22.9413 7.8514,38.8165 17.0071,26.1673 45.7914,32.7067 54.5186,57.1361 h -178.9244 c 0,-8.4428 0.4439,-16.5415 1.2504,-24.3362 l 5.9449,-3.143 -4.9771,-4.9079 z"
   id="path1860" />
	<path
   fill="none"
   stroke="#ffffff"
   stroke-width="2.684"
   d="m -228.9606,224.014 c 0,0 -76.1763,56.9946 -76.1763,159.9189"
   id="path1862" />
	<path
   fill="none"
   stroke="#20201e"
   stroke-width="2.684"
   d="m -132.2498,328.2754 c -0.0629,-0.0944 -0.0629,-0.0944 0,0 z"
   id="path1864" />
	<path
   fill="none"
   stroke="#ffffff"
   stroke-width="2.684"
   d="m -213.2616,263.5603 c -1.4517,16.2804 6.1094,27.9093 6.3982,28.9276 0,0 -18.3203,-9.4458 -20.0654,-21.9534"
   id="path1866" />
	<path
   fill="none"
   stroke="#ffffff"
   stroke-width="2.684"
   d="m -206.8751,292.4729 c 0,0 -12.2125,5.9634 -21.2254,2.1829"
   id="path1868" />
	<path
   fill="none"
   stroke="#20201e"
   stroke-width="2.684"
   d="m -131.8408,328.9046 c 0,0 -8.1433,-10.4737 -10.4721,-15.2696"
   id="path1870" />
	<path
   fill="none"
   stroke="#ffffff"
   stroke-width="2.684"
   d="m -182.0209,232.2882 c 0,0 13.4108,0.0676 17.8827,7.4122 6.1062,10.0342 -0.871,11.3401 -0.871,11.3401 0,0 -6.979,2.1844 -11.7764,-4.3595 -5.1077,-6.9651 -0.8726,-11.3401 -0.8726,-11.3401 l -4.3416,-3.0517 z"
   id="path1872" />
	<path
   fill="none"
   stroke="#ffffff"
   stroke-width="2.684"
   d="m -117.0227,306.2213 c -4.7991,-1.3058 -7.8514,-0.8756 -10.0282,0.4394 0,0 2.1768,-6.5457 -1.7436,-12.2156 -3.9294,-5.6699 -10.4721,-6.1047 -16.1391,-17.0084"
   id="path1874" />
	<line
   fill="none"
   stroke="#ffffff"
   stroke-width="2.684"
   x1="-244.3764"
   y1="238.4231"
   x2="-252.6507"
   y2="233.1691"
   id="line1876" />
	<line
   fill="none"
   stroke="#ffffff"
   stroke-width="2.684"
   x1="-261.38419"
   y1="257.1738"
   x2="-269.67099"
   y2="253.2412"
   id="line1878" />
	<line
   fill="none"
   stroke="#ffffff"
   stroke-width="2.684"
   x1="-276.6459"
   y1="278.91321"
   x2="-286.24149"
   y2="274.98059"
   id="line1880" />
	<line
   fill="none"
   stroke="#ffffff"
   stroke-width="2.684"
   x1="-288.8653"
   y1="303.83029"
   x2="-298.88879"
   y2="300.3381"
   id="line1882" />
	<line
   fill="none"
   stroke="#ffffff"
   stroke-width="2.684"
   x1="-298.45459"
   y1="333.0575"
   x2="-308.9248"
   y2="330.00571"
   id="line1884" />
	<line
   fill="none"
   stroke="#ffffff"
   stroke-width="2.684"
   x1="-304.12701"
   y1="362.6936"
   x2="-315.0282"
   y2="361.40369"
   id="line1886" />

</g>
</svg>
