<?xml version="1.0" encoding="UTF-8" standalone="no"?>
<svg
   version="1.1"
   id="Ebene_1"
   x="0px"
   y="0px"
   viewBox="-566.7274 -103 131.1593 197.78669"
   enable-background="new -566.7274 -103 1664.797 507.0414"
   xml:space="preserve"
   width="131.1593"
   height="197.7867"
   xmlns="http://www.w3.org/2000/svg"
   xmlns:svg="http://www.w3.org/2000/svg"><defs
   id="defs2922" />

<g
   id="g2917"
   transform="translate(-1502.4813,-297.10615)">
	<path
   stroke="#000000"
   stroke-width="2.4843"
   stroke-linejoin="round"
   d="m 1026.3293,362.379 c -11.7978,-23.4204 -10.6057,-65.1398 -9.6194,-81.3044 18.6584,-1.2796 32.0775,-4.8129 32.0775,-8.9774 0,-4.0877 -12.9163,-7.5701 -31.0339,-8.9066 11.5704,-5.9634 19.4879,-18.0177 19.4879,-31.9297 0,-19.8352 -16.0715,-35.9126 -35.9063,-35.9126 -19.8348,0 -35.9063,16.0778 -35.9063,35.9126 0,13.9117 7.9206,25.9659 19.4878,31.9297 -18.1146,1.3365 -31.0368,4.8188 -31.0368,8.9066 0,4.1645 13.4263,7.6978 32.0807,8.9774 0.9893,16.1668 2.1813,57.8849 -9.6164,81.3044 -23.1226,4.6483 -39.3481,15.5615 -39.3481,28.2717 h 128.675 c 0,-12.7102 -16.2024,-23.6271 -39.326,-28.2834 z"
   id="path2915" />

</g>
</svg>
