<?xml version="1.0" encoding="UTF-8" standalone="no"?>
<svg
   version="1.1"
   id="Ebene_1"
   x="0px"
   y="0px"
   viewBox="-566.7274 -103 161.43919 210.37719"
   enable-background="new -566.7274 -103 1664.797 507.0414"
   xml:space="preserve"
   width="161.43919"
   height="210.3772"
   xmlns="http://www.w3.org/2000/svg"
   xmlns:svg="http://www.w3.org/2000/svg"><defs
   id="defs3263" />

<g
   id="g3258"
   transform="translate(-32.177,-284.4032)">

<path
   stroke="#000000"
   stroke-width="2.684"
   stroke-linecap="square"
   d="m -379.3941,368.9229 h -3.0493 v -18.3175 l -14.6781,-16.437 h -0.149 v -96.9625 h 0.149 l 19.0977,-18.2668 h 0.1213 v -31.2504 c 0,-2.7313 -2.1199,-4.9435 -4.7298,-4.9435 h -26.4209 v 16.9854 l -14.8288,4.9126 -13.6644,-4.9126 v -16.9854 h -32.5652 v 16.9854 l -13.6672,4.9126 -14.8272,-4.9126 v -16.9854 h -26.4162 c -2.6115,0 -4.7282,2.2121 -4.7282,4.9435 v 31.2504 h 0.0538 l 19.1653,18.2668 v 96.9625 l -14.6797,16.437 v 18.3175 h -3.0524 c -2.7313,0 -4.945,2.2152 -4.945,4.9494 v 11.6226 c 0,2.7282 2.2136,4.9435 4.945,4.9435 h 148.8636 c 2.7344,0 4.9466,-2.2152 4.9466,-4.9435 v -11.6226 c 0,-2.7057 -2.2148,-4.9394 -4.9488,-4.9394 z"
   id="path3246" />
		
			<line
   fill="none"
   stroke="#ffffff"
   stroke-width="2.684"
   stroke-linecap="round"
   x1="-520.37347"
   y1="368.92291"
   x2="-388.3667"
   y2="368.92291"
   id="line3248" />
		
			<line
   fill="none"
   stroke="#ffffff"
   stroke-width="2.684"
   stroke-linecap="round"
   x1="-519.7915"
   y1="350.61261"
   x2="-388.94559"
   y2="350.61261"
   id="line3250" />
		
			<line
   fill="none"
   stroke="#ffffff"
   stroke-width="2.684"
   stroke-linecap="round"
   x1="-402.90161"
   y1="334.19009"
   x2="-506.99631"
   y2="334.19009"
   id="line3252" />
		
			<line
   fill="none"
   stroke="#ffffff"
   stroke-width="2.684"
   stroke-linecap="round"
   x1="-506.41739"
   y1="237.22749"
   x2="-402.31961"
   y2="237.22749"
   id="line3254" />
		
			<line
   fill="none"
   stroke="#ffffff"
   stroke-width="2.684"
   stroke-linecap="round"
   x1="-523.28052"
   y1="218.94881"
   x2="-381.9707"
   y2="218.94881"
   id="line3256" />
	
</g>
</svg>
