<?xml version="1.0" encoding="UTF-8" standalone="no"?>
<svg
   version="1.1"
   id="Ebene_1"
   x="0px"
   y="0px"
   viewBox="-566.7274 -103 238.04884 220.3267"
   enable-background="new -566.7274 -103 1664.797 507.0414"
   xml:space="preserve"
   width="238.04884"
   height="220.32671"
   xmlns="http://www.w3.org/2000/svg"
   xmlns:svg="http://www.w3.org/2000/svg"><defs
   id="defs4995" />

<g
   id="g4990"
   transform="translate(-477.45529,-9.3352999)">

	<path
   fill="#ffffff"
   stroke="#20201e"
   stroke-width="4.1522"
   stroke-linecap="round"
   stroke-linejoin="round"
   d="m 146.6196,115.0649 c -1.9648,-1.0707 -19.6615,-18.4603 -36.0762,-18.4603 -8.5319,0 -15.2236,2.5762 -21.1241,4.8465 -5.9836,2.3043 -11.6336,4.481 -19.8122,4.481 -9.532,0 -17.4448,-2.908 -24.4313,-5.4736 -5.6302,-2.0677 -10.4951,-3.8543 -15.4709,-3.8543 -4.9739,0 -9.8362,1.7866 -15.4678,3.8543 -6.9818,2.5654 -14.8964,5.4736 -24.4297,5.4736 -8.1786,0 -13.8302,-2.1768 -19.8135,-4.481 -5.9005,-2.2705 -12.5919,-4.8465 -21.1254,-4.8465 -16.4125,0 -34.1099,17.3894 -36.0731,18.4603 0,0 7.5317,-4.4687 13.7934,-4.4687 6.2617,0 12.4076,4.6622 22.2806,4.6622 5.0677,0 9.1954,1.5899 14.4248,3.6038 6.6241,2.5501 14.8672,5.7237 26.5143,5.7237 12.8502,0 23.2609,-3.8219 30.8619,-6.6131 3.461,-1.2735 7.3798,-2.7144 9.0359,-2.7144 1.6621,0 5.5793,1.4409 9.0387,2.7144 7.601,2.7912 18.0101,6.6131 30.8635,6.6131 11.6443,0 19.8889,-3.1738 26.5143,-5.7237 5.2244,-2.0139 9.3552,-3.6038 14.4217,-3.6038 9.8746,0 13.9469,-4.6622 22.2822,-4.6622 8.4001,0 13.8743,4.4674 13.8743,4.4674 z"
   id="path4972" />
	<path
   fill="#ffffff"
   stroke="#20201e"
   stroke-width="4.1522"
   d="m 47.8009,-74.0026 c -0.6667,-0.2182 -1.3564,-0.4025 -2.0585,-0.5499 3.3487,-1.2443 5.7438,-4.458 5.7438,-8.2431 0,-4.8576 -3.9358,-8.793 -8.793,-8.793 -4.8572,0 -8.7946,3.9358 -8.7946,8.793 0,3.3751 1.9018,6.2985 4.693,7.7762 -25.2395,1.6391 -63.5542,34.887 -64.7749,91.18 -0.4854,22.3668 2.3504,40.6758 10.1619,53.9743 L 68.4291,69.5327 C 80.7754,53.9558 92.1293,34.2399 92.1293,8.3885 c 0,-34.3931 -25.1058,-76.1039 -44.3284,-82.415 z"
   id="path4974" />
	<path
   fill="#ffffff"
   stroke="#20201e"
   stroke-width="4.1522"
   d="m 73.0955,-10.7819 c -9.2847,-30.2965 -33.7953,-59.955 -55.4089,-63.8719 3.2121,-1.3103 5.4736,-4.4627 5.4736,-8.1402 0,-4.8576 -3.9358,-8.793 -8.793,-8.793 -4.856,0 -8.7946,3.9358 -8.7946,8.793 0,3.4302 1.9709,6.3982 4.839,7.8467 -1.4916,0.1628 -2.9556,0.4731 -4.3872,0.9462 -19.1745,6.3107 -43.7306,48.7078 -43.7306,82.393 0,24.8462 10.0666,46.2507 21.6847,61.7452 L 68.429,69.5349 C 76.42,56.1955 86.2044,32.0335 73.0852,-10.7879 Z"
   id="path4976" />
	<path
   fill="#ffffff"
   stroke="#000000"
   stroke-width="3.1886"
   stroke-linejoin="bevel"
   d="M 68.1561,104.7772 C 57.5443,99.909 42.5111,96.4435 27.4237,96.4435 c -15.0943,0 -29.2243,3.0723 -41.8996,8.6455 12.6749,5.5701 26.5697,8.81 41.6605,8.81 15.1012,0 28.3148,-3.5551 40.9935,-9.1236 z"
   id="path4978" />
	<path
   fill="#ffffff"
   stroke="#20201e"
   stroke-width="4.1522"
   stroke-linejoin="bevel"
   d="M 63.7516,75.4241 63.7439,75.4133 C 53.4622,70.9937 41.6338,67.2885 26.3306,67.2885 c -15.3171,0 -27.1287,3.7083 -37.4133,8.1355 0,0 -2.3043,14.9685 -2.527,18.348 -0.3472,5.1816 -0.8679,11.3124 -0.8679,11.3124 12.6749,-5.5733 26.8047,-8.6455 41.8996,-8.6455 14.7979,0 28.238,2.9602 40.7324,8.3337 -0.4486,-4.1478 -0.9678,-8.2921 -2.0032,-14.5107 -0.5663,-3.3034 -2.4225,-14.881 -2.4225,-14.881 z"
   id="path4980" />
	<path
   fill="#ffffff"
   stroke="#20201e"
   stroke-width="4.1522"
   stroke-linejoin="bevel"
   d="m -14.4917,105.0917 c 12.6749,-5.5733 26.8047,-8.6455 41.8996,-8.6455 14.7979,0 28.2381,2.9602 40.7324,8.3337 -0.3211,-3.4701 -1.0891,-5.6331 -1.573,-10.0618 -12.5551,-4.3982 -25.2839,-6.6423 -39.3544,-6.6423 -14.2298,0 -28.3302,2.5838 -41.0061,7.0771 -0.0629,3.9012 -0.7236,9.9417 -0.7236,9.9417 z"
   id="path4982" />
	<path
   fill="#ffffff"
   stroke="#20201e"
   stroke-width="4.1522"
   d="m -11.0939,75.4241 c 10.2833,-4.424 22.1057,-8.2125 37.4259,-8.3107 13.0437,-0.086 27.1334,3.8804 37.4165,8.3044 0.5638,-0.5653 2.9525,-1.2904 4.6823,-5.8898 -8.647,-9.3615 -21.5035,-14.2512 -42.0978,-14.2512 -21.9751,0 -33.7072,5.4795 -42.3527,14.8533 1.6989,4.5933 4.3416,4.7191 4.9079,5.2854 z"
   id="path4984" />
	<line
   fill="none"
   stroke="#000000"
   stroke-width="3.1886"
   x1="26.344601"
   y1="55.2892"
   x2="26.344601"
   y2="67.1185"
   id="line4986" />
	<polygon
   fill="#ffffff"
   stroke="#000000"
   stroke-width="2.4221"
   points="23.3873,-3.8573 23.3873,-22.5262 27.5087,-26.6476 19.203,-34.947 10.8973,-26.6476 15.0501,-22.4822 15.0501,-3.8573 -5.7455,-3.8573 -9.8669,-7.9787 -18.1726,0.327 -9.8669,8.6326 -5.714,4.4798 15.0501,4.4798 15.0501,27.289 10.8973,31.4418 19.203,39.7475 27.5087,31.4418 23.3873,27.3204 23.3873,4.4798 44.0571,4.4798 48.2099,8.6326 56.5156,0.327 48.2099,-7.9787 44.0886,-3.8573 "
   id="polygon4988" />

</g>
</svg>
