<?xml version="1.0" encoding="UTF-8" standalone="no"?>
<svg
   version="1.1"
   id="Ebene_1"
   x="0px"
   y="0px"
   viewBox="-566.7274 -103 204.45375 197.20872"
   enable-background="new -566.7274 -103 1664.797 507.0414"
   xml:space="preserve"
   width="204.45375"
   height="197.20872"
   xmlns="http://www.w3.org/2000/svg"
   xmlns:svg="http://www.w3.org/2000/svg"><defs
   id="defs5262" />
    <g
   id="g5257"
   transform="translate(-735.4337,-16.9657)">
		
	
	<path
   fill="#ffffff"
   stroke="#20201e"
   stroke-width="3.809"
   d="m 295.8387,-84.1298 h -50.6489 v 52.933 c 0,7.7929 11.3982,14.1174 25.4513,14.1174 14.0621,0 25.098,-6.3243 25.098,-14.1174 0,-0.689 0.0944,-52.933 0.0944,-52.933 z"
   id="path5231" />
	<rect
   x="245.1866"
   y="-84.129799"
   fill="#ffffff"
   stroke="#20201e"
   stroke-width="3.809"
   width="50.648899"
   height="45.385502"
   id="rect5233" />
	<line
   fill="none"
   stroke="#20201e"
   stroke-width="3.809"
   x1="245.1866"
   y1="-84.129799"
   x2="295.83871"
   y2="-38.747501"
   id="line5235" />
	<line
   fill="none"
   stroke="#20201e"
   stroke-width="3.809"
   x1="295.83871"
   y1="-84.129799"
   x2="245.1866"
   y2="-38.747501"
   id="line5237" />
	<path
   fill="#ffffff"
   stroke="#20201e"
   stroke-width="3.809"
   stroke-linejoin="round"
   d="m 335.9199,93.6085 c -19.7062,-9.724 -41.1256,-14.8363 -64.5861,-14.8363 -23.4604,0 -45.8951,5.4518 -65.6054,15.1742 19.7106,9.7239 41.7643,15.3234 65.2215,15.3234 23.4698,0.0314 45.2723,-5.9147 64.9667,-15.6361 z"
   id="path5239" />
	<path
   fill="#ffffff"
   stroke="#20201e"
   stroke-width="3.809"
   stroke-linejoin="bevel"
   d="m 345.7672,60.26 c 1.1306,-0.9893 2.252,-2.0016 3.3518,-3.0693 23.8169,-23.1732 29.2734,-56.1986 12.1848,-73.7632 -17.0946,-17.5662 -50.2525,-13.0144 -74.0684,10.1572 -7.1155,6.9205 -12.5752,14.7228 -16.3018,22.7277 -3.7237,-8.0049 -9.1862,-15.8072 -16.2989,-22.7277 -23.8153,-23.1716 -56.982,-27.7233 -74.0684,-10.1572 -17.093,17.5646 -11.638,50.5923 12.182,73.7632 1.103,1.0707 2.229,2.0876 3.3673,3.077 20.5647,-7.7224 46.559,-12.3371 74.8361,-12.3371 28.2519,0 54.2386,4.6248 74.7825,12.3327 z"
   id="path5241" />
	<path
   fill="#ffffff"
   stroke="#20201e"
   stroke-width="3.809"
   d="m 270.9531,16.3406 c 3.7269,-8.0065 9.1862,-15.8072 16.3018,-22.7245 5.7976,-5.6469 12.1574,-10.1789 18.7045,-13.5628 -10.8578,-3.0539 -22.6493,-4.7298 -34.9877,-4.7298 -12.3446,0 -24.1488,1.6806 -35.0096,4.7393 6.5379,3.3827 12.8946,7.9112 18.6922,13.5537 7.1102,6.9214 12.5529,14.7237 16.2967,22.7148 z"
   id="path5243" />
	<path
   fill="#ffffff"
   stroke="#20201e"
   stroke-width="3.809"
   stroke-linejoin="bevel"
   d="m 345.484,60.26 -0.0123,-0.0169 C 324.9177,52.5298 298.9379,47.923 270.686,47.923 c -28.2764,0 -54.2701,4.6147 -74.8329,12.3371 0,0 9.8636,7.7255 11.291,13.4322 1.4256,5.7023 2.037,13.8809 -1.3902,20.2391 19.7078,-9.7224 42.1451,-15.1742 65.6055,-15.1742 23.0117,0 45.1652,5.461 64.5861,14.8363 -3.1338,-6.2784 -3.14,-14.3556 -1.7513,-19.9012 C 335.61,68.0293 345.4887,60.29 345.4887,60.29 Z"
   id="path5245" />
	<path
   fill="#ffffff"
   stroke="#20201e"
   stroke-width="3.809"
   stroke-linejoin="bevel"
   d="m 205.7346,93.9546 c 19.7077,-9.7224 42.145,-15.1742 65.6054,-15.1742 23.0117,0 45.1621,5.461 64.5861,14.8363 -1.3334,-2.6822 -2.7344,-9.532 -2.5101,-13.3523 -19.5218,-7.6746 -40.5153,-11.8702 -62.3869,-11.8702 -22.1239,0 -43.3405,4.2828 -63.0477,12.1187 0.2517,7.0787 -0.7551,10.6338 -2.2337,13.4023 z"
   id="path5247" />
	<polygon
   points="280.8004,58.4352 271.079,53.5588 261.3261,58.4352 271.079,63.3117 "
   id="polygon5249" />
	<polygon
   points="240.6878,61.6443 230.3056,58.4038 221.4651,64.7904 231.8472,68.0308 "
   id="polygon5251" />
	<polygon
   points="301.4388,61.6443 311.8208,58.4038 320.6613,64.7904 310.2793,68.0308 "
   id="polygon5253" />
	<ellipse
   fill="#ffffff"
   stroke="#20201e"
   stroke-width="3.809"
   cx="270.95309"
   cy="-23.957701"
   rx="17.930201"
   ry="13.2394"
   id="ellipse5255" />

</g>
</svg>
