<?xml version="1.0" encoding="UTF-8" standalone="no"?>
<svg
   version="1.1"
   id="Ebene_1"
   x="0px"
   y="0px"
   viewBox="-566.7274 -103 215.47673 203.18508"
   enable-background="new -566.7274 -103 1664.797 507.0414"
   xml:space="preserve"
   width="215.47673"
   height="203.18509"
   xmlns="http://www.w3.org/2000/svg"
   xmlns:svg="http://www.w3.org/2000/svg"><defs
   id="defs5555" />

<g
   id="g5550"
   transform="translate(-1214.8001,-17.901362)">

	<path
   fill="#ffffff"
   stroke="#20201e"
   stroke-width="3.4947"
   d="m 703.1,-59.9081 c 0,0 3.4903,-18.7551 3.4903,-21.3714 0,-2.6163 2.6146,-3.0539 5.2322,0.4363 2.6177,3.4887 14.394,20.4987 14.394,20.4987 l -23.1238,0.4342 z"
   id="path5520" />
	<path
   fill="#ffffff"
   stroke="#20201e"
   stroke-width="3.4947"
   d="m 859.5866,83.9501 c -1.1829,-8.4583 -2.7989,-16.5217 -4.7682,-24.1872 l -6.3198,-2.5224 4.2183,-5.0479 c -2.4026,-8.1081 -5.1955,-15.7427 -8.2676,-22.9199 l -5.982,-1.6898 2.9587,-5.057 C 838.2123,15.7008 834.762,9.3347 831.1798,3.4065 l -5.5764,-1.1199 2.0032,-4.604 c -4.0186,-6.1969 -8.145,-11.8564 -12.2402,-16.9933 l -5.9021,-0.6467 1.5761,-4.5961 c -4.7899,-5.6255 -9.4568,-10.5183 -13.7733,-14.6982 l -5.9021,-0.3318 1.0292,-4.229 C 781.8651,-53.3398 774.424,-57.9762 774.424,-57.9762 l -13.374,4.0723 c 0,0 -6.3935,-3.4903 -11.6288,-6.979 0,0 -3.4903,-11.6305 -4.6484,-18.0271 -1.1675,-6.3966 -4.6546,-3.4903 -5.819,-1.7451 -1.1614,1.7451 -13.2297,15.1176 -13.2297,15.1176 0,0 -7.2172,-0.9862 -12.36,0 -7.5551,1.4578 -11.045,6.5442 -19.7738,14.8303 -6.3567,6.0449 -10.1725,11.3432 -12.351,17.01 -2.1813,5.6699 0.4332,5.6699 -0.4332,10.9037 -0.8787,5.2338 -24.4313,44.4857 -27.0429,49.2835 -2.6207,4.7975 -8.9374,19.4696 3.4871,28.7848 3.4839,2.6176 6.1078,3.9295 8.2861,4.7975 0,0 3.4871,-0.8679 4.796,-2.613 0.2335,-0.3118 0.3503,-0.5023 0.4086,-0.6083 0.043,-0.1167 0.0645,-0.1244 0,0 -0.1321,0.3395 -0.4363,1.6145 0.9002,3.2213 2.1814,2.6192 4.9835,2.4241 6.541,2.6192 2.3258,0.2919 6.5411,-1.742 10.0341,-6.979 3.4903,-5.2338 5.6715,-6.9806 8.2893,-10.0329 2.6115,-3.0524 17.0487,-9.807 22.6802,-19.1899 1.3057,-2.1767 4.3596,-1.3088 6.5378,0.4378 2.1814,1.7451 14.394,2.1829 19.6263,-6.5442 0,0 2.4732,22.9444 -7.8498,38.8196 -17.0084,26.1688 -45.7945,32.7068 -54.5186,57.1362 h 178.8206 c 0,-8.4413 -0.4455,-16.5462 -1.2504,-24.3423 l -5.9448,-3.1369 5.1282,-4.845 z"
   id="path5522" />
	<path
   fill="none"
   stroke="#20201e"
   stroke-width="2.684"
   d="m 767.4376,-48.0788 c 0,0 76.1763,56.9946 76.1763,159.9221"
   id="path5524" />
	<path
   fill="none"
   stroke="#20201e"
   stroke-width="2.684"
   d="m 670.7268,56.8622 c 0.0629,-0.1258 0.0629,-0.1258 0,0 z"
   id="path5526" />
	<path
   fill="none"
   stroke="#20201e"
   stroke-width="2.684"
   d="m 751.7386,-8.545 c 1.4532,16.2788 -6.1078,27.9093 -6.3967,28.9261 0,0 18.3204,-9.4474 20.0627,-21.9534"
   id="path5528" />
	<path
   fill="none"
   stroke="#20201e"
   stroke-width="2.684"
   d="m 745.3521,20.399 c 0,0 12.2125,5.965 21.227,2.1845"
   id="path5530" />
	<path
   fill="none"
   stroke="#20201e"
   stroke-width="2.684"
   d="m 670.3178,57.46 c 0,0 8.1417,-10.4689 10.4736,-15.2664"
   id="path5532" />
	<path
   fill="none"
   stroke="#20201e"
   stroke-width="2.684"
   d="m 720.4979,-39.7888 c 0,0 -13.4108,0.063 -17.8811,7.4122 -6.1047,10.0329 0.8694,11.3401 0.8694,11.3401 0,0 6.9774,2.1829 11.7764,-4.3595 5.1093,-6.9667 0.8726,-11.3401 0.8726,-11.3401 l 4.3416,-3.0549 z"
   id="path5534" />
	<path
   fill="none"
   stroke="#20201e"
   stroke-width="2.684"
   d="m 655.4996,34.7767 c 4.7991,-1.3073 7.853,-0.8695 10.0314,0.4378 0,0 -2.1783,-6.5426 1.742,-12.2141 3.9294,-5.6699 10.4677,-6.1078 16.1392,-17.01"
   id="path5536" />
	<line
   fill="none"
   stroke="#20201e"
   stroke-width="2.684"
   x1="782.85352"
   y1="-33.685398"
   x2="791.12769"
   y2="-38.9174"
   id="line5538" />
	<line
   fill="none"
   stroke="#20201e"
   stroke-width="2.684"
   x1="799.87378"
   y1="-14.9316"
   x2="808.14801"
   y2="-18.854799"
   id="line5540" />
	<line
   fill="none"
   stroke="#20201e"
   stroke-width="2.684"
   x1="815.13232"
   y1="6.8393998"
   x2="824.72791"
   y2="2.9068"
   id="line5542" />
	<line
   fill="none"
   stroke="#20201e"
   stroke-width="2.684"
   x1="827.33917"
   y1="31.725"
   x2="837.37518"
   y2="28.2328"
   id="line5544" />
	<line
   fill="none"
   stroke="#20201e"
   stroke-width="2.684"
   x1="836.93481"
   y1="60.952099"
   x2="847.41107"
   y2="57.900398"
   id="line5546" />
	<line
   fill="none"
   stroke="#20201e"
   stroke-width="2.684"
   x1="842.59772"
   y1="90.619797"
   x2="853.51459"
   y2="89.298401"
   id="line5548" />

</g>
</svg>
