<?xml version="1.0" encoding="UTF-8" standalone="no"?>
<svg
   version="1.1"
   id="Ebene_1"
   x="0px"
   y="0px"
   viewBox="-566.7274 -103 132.16969 198.7971"
   enable-background="new -566.7274 -103 1664.797 507.0414"
   xml:space="preserve"
   width="132.16969"
   height="198.7971"
   xmlns="http://www.w3.org/2000/svg"
   xmlns:svg="http://www.w3.org/2000/svg"><defs
   id="defs6260" />

<g
   id="g6255"
   transform="translate(-1501.9761,-33.58625)">

	<path
   fill="#ffffff"
   stroke="#000000"
   stroke-width="3.4947"
   stroke-linejoin="round"
   d="m 1026.3293,99.3659 c -11.7978,-23.4236 -10.6057,-65.1429 -9.6194,-81.3044 18.6584,-1.2796 32.0775,-4.8145 32.0775,-8.979 0,-4.0877 -12.9163,-7.5717 -31.0339,-8.9066 11.5704,-5.9618 19.4879,-18.0192 19.4879,-31.9328 0,-19.832 -16.0715,-35.9095 -35.9063,-35.9095 -19.8348,0 -35.9063,16.0778 -35.9063,35.9095 0,13.9133 7.9142,25.9707 19.4878,31.9328 -18.1146,1.3349 -31.0368,4.8189 -31.0368,8.9066 0,4.1645 13.4263,7.6994 32.0807,8.979 0.9893,16.1621 2.1813,57.8818 -9.6164,81.3044 -23.1226,4.6483 -39.3481,15.5583 -39.3481,28.2701 h 128.675 c 0,-12.7102 -16.2024,-23.6271 -39.326,-28.2834 z"
   id="path6253" />

</g>
</svg>
