<?xml version="1.0" encoding="UTF-8" standalone="no"?>
<svg
   version="1.1"
   id="Ebene_1"
   x="0px"
   y="0px"
   viewBox="-566.7274 -103 223.66661 200.73384"
   enable-background="new -566.7274 -103 1664.797 507.0414"
   xml:space="preserve"
   width="223.66661"
   height="200.73384"
   xmlns="http://www.w3.org/2000/svg"
   xmlns:svg="http://www.w3.org/2000/svg"><defs
   id="defs6476" />
<g
   id="g6471"
   transform="translate(-963.23274,-18.97445)">
<!-- 
		
		-->
<!-- PIECE:       -->
	
	
	
	
	<path
   fill="#ffffff"
   stroke="#20201e"
   stroke-width="3.4947"
   stroke-linejoin="bevel"
   d="m 572.5688,100.5929 c -19.0854,-8.9236 -40.0026,-13.609 -63.0948,-13.609 -23.0923,0 -45.4767,5.1156 -65.1902,14.0407 19.0854,8.916 40.7356,13.9362 63.831,13.9362 23.1237,0.0314 44.7689,-5.4427 64.4633,-14.3462 z"
   id="path6457" />
	<path
   fill="#ffffff"
   stroke="#20201e"
   stroke-width="3.4947"
   stroke-linejoin="bevel"
   d="m 571.153,60.5431 -0.0123,-0.0215 c -17.1559,-7.0724 -37.1176,-11.3753 -63.0351,-11.3753 -25.9489,0 -46.0116,4.3057 -63.6706,11.397 0,0 1.9264,16.371 2.0062,21.7845 0.0952,6.0971 -1.6099,18.5909 -1.6099,18.5909 19.7121,-8.9251 41.5598,-13.9422 64.6521,-13.9422 22.6493,0 45.6686,4.6483 63.0948,13.609 -2.863,-5.7259 -1.4158,-40.0183 -1.4158,-40.0183 z"
   id="path6459" />
	<path
   fill="#ffffff"
   stroke="#20201e"
   stroke-width="3.4947"
   stroke-linejoin="bevel"
   d="m 444.9005,100.8131 c 18.554,-8.8239 41.4906,-13.8378 64.583,-13.8378 22.6493,0 41.6637,3.1936 63.0948,13.609 -0.8633,-2.4072 -1.441,-9.8853 -1.6284,-12.5982 -18.9688,-7.0466 -39.8893,-11.0466 -61.4212,-11.0466 -21.7706,0 -43.674,4.2183 -63.3245,11.4093 -0.409,2.8 -1.2899,12.427 -1.2899,12.427 z"
   id="path6461" />
	<path
   fill="#ffffff"
   stroke="#20201e"
   stroke-width="3.4947"
   d="m 613.7196,-43.8284 c -4.587,-2.6791 -10.4796,-1.1306 -13.1588,3.4626 -2.3012,3.9358 -1.4809,8.8176 1.6867,11.824 -13.1066,15.8871 -37.0294,44.8727 -42.8026,51.9042 -1.696,-0.7573 -3.4534,-1.4763 -5.2814,-2.1476 0.5192,-5.3921 4.3073,-46.537 6.3167,-68.4212 4.3658,0.0998 8.3938,-2.7912 9.5336,-7.1986 1.3303,-5.1476 -1.7574,-10.3985 -6.9067,-11.7302 -5.14,-1.3319 -10.3906,1.7589 -11.7242,6.9035 -1.1429,4.4089 0.9739,8.8915 4.8422,10.9207 -9.4782,21.5126 -27.8693,63.2616 -27.9152,63.4346 -0.009,0.0415 -0.003,0.0845 -0.0123,0.1275 -1.6713,-0.1982 -3.389,-0.3748 -5.14,-0.5192 -0.3472,-2.315 -8.2339,-50.7118 -12.3446,-75.9183 4.7255,-1.106 8.243,-5.3351 8.243,-10.3985 0,-5.9021 -4.7836,-10.6933 -10.6888,-10.6933 -5.9052,0 -10.6917,4.7915 -10.6917,10.6933 0,5.0633 3.5271,9.2923 8.2494,10.3985 -4.0925,25.0935 -11.9299,73.1623 -12.3414,75.8774 -1.8281,0.1475 -3.6162,0.3211 -5.3613,0.5269 -0.0123,-0.0614 -0.009,-0.1137 -0.0276,-0.169 -0.043,-0.1736 -18.4374,-41.9279 -27.9093,-63.4378 3.8619,-2.0278 5.9757,-6.5086 4.8359,-10.9207 -1.3304,-5.1445 -6.5842,-8.2355 -11.7271,-6.9035 -5.1429,1.3321 -8.2339,6.5826 -6.9006,11.7255 1.1429,4.4133 5.1646,7.3014 9.5304,7.2001 2.0093,21.8597 5.7853,62.9187 6.3168,68.396 -1.7943,0.6544 -3.5208,1.3534 -5.186,2.0892 -6.0066,-7.3062 -29.6575,-35.9724 -42.6704,-51.7374 3.1737,-3.0063 3.9911,-7.8882 1.6959,-11.824 -2.676,-4.5933 -8.5719,-6.1418 -13.162,-3.4626 -4.587,2.6775 -6.1387,8.5703 -3.4626,13.1635 2.3012,3.9326 6.9589,5.6239 11.1343,4.3397 7.8253,20.3804 33.0843,85.9732 34.0501,86.8793 17.4111,-7.0863 37.4322,-11.397 63.3749,-11.397 25.9306,0 45.9455,4.3057 63.3591,11.3907 0.9586,-0.9079 26.5511,-65.9609 34.5787,-86.873 4.1783,1.2842 8.8329,-0.4071 11.1312,-4.3397 2.5798,-4.5901 1.0381,-10.4828 -3.5551,-13.1601 z"
   id="path6463" />
	<polygon
   points="517.4178,63.6578 508.4514,59.1903 499.5166,63.6578 508.4514,68.1252 "
   id="polygon6465" />
	<polygon
   points="480.6085,66.5522 471.0759,63.5948 462.959,69.4466 472.4917,72.4039 "
   id="polygon6467" />
	<polygon
   points="536.3259,66.6151 545.8585,63.6263 553.9753,69.478 544.4427,72.4668 "
   id="polygon6469" /></g></svg>
