<?xml version="1.0" encoding="utf-8"?>
<!DOCTYPE svg PUBLIC "-//W3C//DTD SVG 1.1//EN" "http://www.w3.org/Graphics/SVG/1.1/DTD/svg11.dtd">
<svg version="1.1" id="Ebene_1" xmlns="http://www.w3.org/2000/svg" xmlns:xlink="http://www.w3.org/1999/xlink" x="0px" y="0px"
	 viewBox="-566.7274 -103 1664.797 507.0414" enable-background="new -566.7274 -103 1664.797 507.0414" xml:space="preserve">

<g>
	<path fill="#20201E" d="M149.8915,385.1882c-1.9648-1.0723-19.6615-18.4619-36.0731-18.4619
		c-8.5335,0-15.2252,2.5746-21.1241,4.8481c-5.9848,2.3043-11.6349,4.4794-19.8135,4.4794c-9.532,0-17.4448-2.9095-24.4297-5.4748
		c-5.6315-2.0646-10.4951-3.8527-15.4725-3.8527c-4.9739,0-9.8378,1.7881-15.4693,3.8527
		c-6.9818,2.5654-14.8964,5.4748-24.4281,5.4748c-8.1801,0-13.8302-2.1752-19.8135-4.4794
		c-5.9005-2.2736-12.5906-4.8481-21.1225-4.8481c-16.4157,0-34.1131,17.3894-36.0762,18.4619c0,0,7.1448-4.4703,13.7934-4.4703
		c6.6502,0,12.4091,4.6638,22.2838,4.6638c5.0649,0,9.1926,1.5884,14.4217,3.6007c6.6241,2.5531,14.8656,5.7237,26.5143,5.7237
		c12.8518,0,23.2609-3.8219,30.8619-6.6118c3.4594-1.2719,7.3798-2.7129,9.0359-2.7129c1.6621,0,5.5793,1.4409,9.0387,2.7129
		c7.6025,2.7897,18.0101,6.6118,30.8635,6.6118c11.6459,0,19.8905-3.1706,26.5143-5.7237c5.226-2.0124,9.3552-3.6007,14.4233-3.6007
		c9.8731,0,17.3557-4.6638,22.2806-4.6638s13.8743,4.4674,13.8743,4.4674L149.8915,385.1882z"/>
	<path fill="#FFFFFF" stroke="#20201E" stroke-width="4.1522" d="M95.6844,278.5043c0-29.4301-25.1118-76.0819-44.3316-82.3898
		c-0.6682-0.2197-1.3564-0.404-2.0631-0.5515c3.3518-1.2428,5.7485-4.458,5.7485-8.2431c0-4.8576-3.9402-8.793-8.793-8.793
		c-4.8544,0-8.7977,3.9358-8.7977,8.793c0,3.3751,1.9079,6.2985,4.6962,7.7762c-3.9402,0.255-8.1971,1.2796-12.5828,3.0462
		c-2.7974-1.272-5.5808-2.1829-8.323-2.6822c3.2074-1.3103,5.472-4.4627,5.472-8.1402c0-4.8576-3.9358-8.793-8.793-8.793
		s-8.793,3.9358-8.793,8.793c0,3.4302,1.9694,6.3982,4.8358,7.8466c-1.4886,0.1644-2.9541,0.4731-4.3872,0.9478
		c-19.1745,6.3092-43.7275,51.2341-43.7275,82.3898c0,24.8463,10.0666,46.2507,21.6863,61.7451
		c1.7297,4.5933,4.3595,4.7282,4.9281,5.2967c0.0015,0,0.0031-0.0031,0.0046-0.0031c-0.0108,0.0768-2.3027,14.9747-2.527,18.3389
		c-0.3456,5.186-0.8679,11.3124-0.8679,11.3124c12.6781,5.5765,26.5697,8.8147,41.6605,8.8147
		c15.0943,0,28.301-3.5516,40.9747-9.1249c-0.4516-4.1447-0.9693-8.2862-2.0062-14.5076
		c-0.5407-3.2537-2.4026-14.8394-2.4026-14.8394c0.5653-0.5623,3.9848-4.8513,3.9848-4.8513
		c12.3327-15.5732,24.3822-36.3374,24.3822-62.1667L95.6844,278.5043z"/>
	<path stroke="#000000" stroke-width="1.6765" d="M-7.2242,345.5475c10.2817-4.4304,22.1041-8.3138,37.4228-8.3138
		c15.3142,0,27.1319,3.8804,37.4133,8.3044c0.5638-0.5622,1.9079-2.0032,4.6839-5.8898
		c-8.6502-9.3615-21.2393-14.5047-41.8335-14.5047c-21.9736,0-33.9683,5.7331-42.617,15.1069
		c1.7618,4.5618,4.4045,4.7191,4.9708,5.2854L-7.2242,345.5475z"/>
	<path fill="#FFFFFF" stroke="#000000" stroke-width="3.1886" stroke-linejoin="bevel" d="M71.3652,374.869
		c-12.6797-5.5701-25.6466-8.3322-40.7387-8.3322s-29.2196,3.0724-41.8965,8.6426c12.6765,5.5765,26.5681,8.8147,41.6605,8.8147
		c15.1012,0,28.3148-3.5551,40.9935-9.1237L71.3652,374.869z"/>
	<path stroke="#000000" stroke-width="1.6765" d="M71.0191,340.671c7.9851-13.3463,18.4908-38.5176,5.3628-81.3547
		c-11.0145-35.9409-43.4664-71.0104-67.0715-63.2175c-20.9366,6.9129-43.7275,56.4188-43.7275,82.3898
		c0,24.8463,10.0634,46.2507,21.6816,61.7451l83.7804,0.409L71.0191,340.671z"/>
	<circle stroke="#000000" stroke-width="1.6765" cx="17.6614" cy="187.2991" r="8.7939"/>
	<path stroke="#000000" stroke-width="1.6765" stroke-linejoin="bevel" d="M67.0235,345.516l-0.0031-0.0092
		c-10.2817-4.4212-22.1085-8.1263-37.4133-8.1263c-15.3171,0-27.1287,3.7083-37.4133,8.1355c0,0-2.3043,14.9716-2.5285,18.3448
		c-0.3456,5.186-0.8664,11.3124-0.8664,11.3124c12.6749-5.5701,26.8063-8.6426,41.8933-8.6426
		c14.8026,0,28.2425,2.9618,40.7387,8.3322c-0.4501-4.1447-0.9693-8.2862-2.0047-14.5076
		c-0.5663-3.2719-2.4225-14.881-2.4225-14.881L67.0235,345.516z"/>
	<path fill="none" stroke="#FFFFFF" stroke-width="1.6765" stroke-linecap="round" stroke-linejoin="bevel" d="M66.646,365.588
		c-11.397-3.5393-23.5649-5.4843-36.1203-5.4843c-12.7687,0-25.8184,2.08-37.5234,5.7545"/>
	<g>
		<path fill="none" stroke="#FFFFFF" stroke-width="1.6765" stroke-linecap="round" d="M-4.55,344.1631
			c9.5229-3.8344,20.442-6.9529,34.1665-6.9529c13.7978,0,24.7553,3.1524,34.3144,7.0111"/>
		<path fill="none" stroke="#FFFFFF" stroke-width="1.6765" stroke-linecap="round" d="M70.1382,337.3991
			c-12.0882-9.6685-21.7615-12.2587-39.6627-12.2587c-14.993,0-30.4639,3.9694-37.8758,10.7593"/>
	</g>
	<polygon fill="#FFFFFF" stroke="#000000" stroke-width="1.6765" points="51.4818,262.1446 47.3919,266.266 26.6907,266.266 
		26.6907,247.5782 30.8121,243.4568 22.5064,235.1512 14.2007,243.4568 18.3535,247.6096 18.3535,266.266 -2.4736,266.266 
		-6.5949,262.1446 -14.9006,270.4503 -6.5949,278.756 -2.4106,274.6031 18.3535,274.6031 18.3535,297.3808 14.2007,301.5336 
		22.5064,309.8393 30.8121,301.5336 26.6907,297.4123 26.6907,274.6031 47.329,274.6031 51.4818,278.756 59.7875,270.4503 	"/>


</g>
</svg>
