<?xml version="1.0" encoding="utf-8"?>
<!DOCTYPE svg PUBLIC "-//W3C//DTD SVG 1.1//EN" "http://www.w3.org/Graphics/SVG/1.1/DTD/svg11.dtd">
<svg version="1.1" id="Ebene_1" xmlns="http://www.w3.org/2000/svg" xmlns:xlink="http://www.w3.org/1999/xlink" x="0px" y="0px"
	 viewBox="-566.7274 -103 1664.797 507.0414" enable-background="new -566.7274 -103 1664.797 507.0414" xml:space="preserve">
    <g>
	<path stroke="#000000" stroke-width="0.975" d="M289.5465,255.2547c4.2551-2.5163,6.0524-5.8819,6.0524-9.5858
		c0-1.0845,0.1536-52.1748,0.1536-52.1748h-50.6521c0,0-0.2381,51.5298-0.2381,52.1748c0,3.7313,2.6438,7.1202,6.9572,9.6424
		c-3.0508,0.444-6.0679,0.9877-9.0513,1.6422c4.7714,3.0493,9.2784,6.6103,13.4477,10.6719
		c5.9081,5.747,10.7962,12.1112,14.6337,18.9734c3.8373-6.8622,8.7285-13.2265,14.6306-18.9734
		c4.1783-4.0616,8.6885-7.6287,13.4599-10.6778c-3.0517-0.6607-6.1978-1.1955-9.3439-1.6674L289.5465,255.2547z"/>
	<path d="M336.1401,371.3768c-3.1338-6.2831-3.2197-14.4984-1.828-20.0472c1.4256-5.7083,14.9471-16.5107,14.9471-16.5107
		c23.82-23.1688,29.2734-56.1955,12.1848-73.7632c-17.0946-17.5662-50.2525-13.0144-74.0716,10.1572
		c-7.1124,6.922-12.5689,14.7212-16.299,22.7277c-3.7269-8.0065-9.1894-15.8056-16.2989-22.7277
		c-23.8152-23.1716-56.9788-27.7233-74.0716-10.1572c-17.087,17.5662-11.6304,50.5954,12.1836,73.7632
		c1.0753,1.0446,12.9456,10.8024,14.3726,16.5107c1.424,5.7023,1.6222,13.8994-1.8035,20.2589h0.5146
		c-0.0753,0.043-0.149,0.0707-0.2258,0.1137c19.709,9.7208,41.8902,15.1896,65.3474,15.1896
		c23.4384-0.0315,45.3037-5.8203,65.0297-15.5417"/> 


	<g>
		<path stroke="#FFFFFF" stroke-width="3.1741" stroke-linecap="round" d="M209.1954,370.2128
			c18.9687-8.8515,39.9428-13.7641,62.2548-13.7641c21.4327,0,42.0035,5.2628,60.3546,12.7379"/>
		<path stroke="#FFFFFF" stroke-width="3.1741" stroke-linecap="round" d="M340.9221,333.4665
			c-19.7552-6.704-43.9635-10.6549-70.1201-10.6549c-26.3853,0-50.7842,4.0248-70.636,10.8361"/>
	</g>


	<polygon fill="none" stroke="#FFFFFF" stroke-width="1.9503" stroke-linejoin="bevel" points="291.623,197.1778 249.1192,235.277 
		291.623,235.277 249.1192,197.1778 	"/>
	<path fill="none" stroke="#FFFFFF" stroke-width="3.1741" stroke-linecap="round" d="M328.558,356.7161
		c-18.1913-6.3875-37.5454-11.0204-57.6207-11.0204c-20.4619,0-40.1724,4.7622-58.6589,11.3737"/>
	<polygon fill="#FFFFFF" stroke="#000000" stroke-width="0.9974" points="260.98,335.2912 270.9531,340.262 280.9262,335.2912 
		270.9531,330.2889 	"/>
	<polygon fill="#FFFFFF" stroke="#000000" stroke-width="0.9974" points="220.2381,341.7722 230.8719,345.0755 239.9012,338.5631 
		229.2674,335.2283 	"/>
	<polygon fill="#FFFFFF" stroke="#000000" stroke-width="0.9974" points="321.6996,341.7722 311.0343,345.0755 302.005,338.5631 
		312.6388,335.2283 	"/>

</g>
</svg>