<?xml version="1.0" encoding="utf-8"?>
<!DOCTYPE svg PUBLIC "-//W3C//DTD SVG 1.1//EN" "http://www.w3.org/Graphics/SVG/1.1/DTD/svg11.dtd">
<svg version="1.1" id="Ebene_1" xmlns="http://www.w3.org/2000/svg" xmlns:xlink="http://www.w3.org/1999/xlink" x="0px" y="0px"
	 viewBox="-566.7274 -103 1664.797 507.0414" enable-background="new -566.7274 -103 1664.797 507.0414" xml:space="preserve">

<g>
	<path fill="#20201E" stroke="#20201E" stroke-width="2.684" d="M713.5765,204.8543c0,0,3.4903-18.7567,3.4903-21.3745
		c0-2.6146,2.6146-3.0524,5.2322,0.4378c2.6176,3.4902,14.394,20.4986,14.394,20.4986l-23.1238,0.409L713.5765,204.8543z"/>
	<path fill="#20201E" stroke="#20201E" stroke-width="2.684" d="M870.0316,348.725c-1.1829-8.4551-2.802-16.517-4.7682-24.1824
		l-6.3198-2.5255l4.2214-5.0479c-2.4056-8.1081-5.2014-15.7427-8.2708-22.9183l-5.9788-1.6928l2.9888-5.0966
		c-3.2137-6.8252-6.664-13.1928-10.2493-19.1207l-5.5734-1.1183l2.0001-4.604c-4.0157-6.1953-8.145-11.8564-12.2402-16.9933
		l-5.8989-0.6467l1.5761-4.5961c-4.7868-5.6239-9.4537-10.5168-13.7705-14.6967l-5.908-0.3318l1.0323-4.229
		c-10.5259-9.5289-17.9702-14.1637-17.9702-14.1637l-13.3741,4.0711c0,0-6.3966-3.4918-11.6288-6.979
		c0,0-3.4903-11.6304-4.6484-18.0287c-1.1675-6.3935-4.6578-3.4855-5.8159-1.7451c-1.1675,1.7451-13.2324,15.1207-13.2324,15.1207
		s-7.2172-0.9893-12.3541,0c-7.561,1.4548-11.0513,6.5442-19.7737,14.8319c-6.3658,6.0402-10.1817,11.3401-12.3569,17.0072
		c-2.1813,5.6699,0.4332,5.6699-0.4363,10.9022c-0.8756,5.237-24.4281,44.4889-27.0397,49.2867
		c-2.6207,4.7975-8.9406,19.468,3.4871,28.7864c3.4839,2.6176,6.1047,3.9294,8.2831,4.7959c0,0,3.4903-0.8664,4.799-2.6115
		c0.2304-0.3134,0.3533-0.5069,0.4117-0.6114c0.04-0.1198,0.0615-0.1229,0,0c-0.1352,0.341-0.4424,1.6161,0.8972,3.2228
		c2.1813,2.6176,4.9835,2.4272,6.5442,2.6176c2.3227,0.295,6.5378-1.742,10.0313-6.9774c3.4871-5.2323,5.6686-6.9805,8.2861-10.0313
		c2.6146-3.0539,17.0515-9.8086,22.6833-19.1915c1.3058-2.1768,4.3596-1.3073,6.5379,0.4378
		c2.1813,1.7451,14.3908,2.1844,19.6263-6.5426c0,0,2.4733,22.9428-7.853,38.8196c-17.0056,26.1642-45.7944,32.7068-54.5186,57.133
		h178.8238c0-8.4428-0.4455-16.5478-1.2505-24.3391l-5.9479-3.14l5.0338-4.8764L870.0316,348.725z"/>
	<path fill="none" stroke="#FFFFFF" stroke-width="2.684" d="M777.9141,216.6836c0,0,76.1763,56.9915,76.1763,159.9221"/>
	<path fill="none" stroke="#20201E" stroke-width="2.684" d="M681.2032,320.945
		C681.2662,320.8506,681.2347,320.8506,681.2032,320.945z"/>
	<path fill="none" stroke="#FFFFFF" stroke-width="2.684" d="M762.2151,256.2299c1.4501,16.2788-6.1078,27.9108-6.3967,28.9276
		c0,0,18.3204-9.4474,20.0655-21.9534"/>
	<path fill="none" stroke="#FFFFFF" stroke-width="2.684" d="M755.7971,285.1425c0,0,12.2125,5.9634,21.227,2.1829"/>
	<path fill="none" stroke="#20201E" stroke-width="2.684" d="M680.7943,321.5742c0,0,8.1417-10.4705,10.4705-15.2664"/>
	<path fill="none" stroke="#FFFFFF" stroke-width="2.684" d="M730.9429,224.9578c0,0-13.4108,0.0645-17.8843,7.4106
		c-6.1047,10.0342,0.8756,11.3416,0.8756,11.3416s6.9742,2.1829,11.7733-4.3595c5.1092-6.9667,0.8694-11.3416,0.8694-11.3416
		l4.3416-3.0517L730.9429,224.9578z"/>
	<path fill="none" stroke="#FFFFFF" stroke-width="2.684" d="M665.9762,298.8909c4.796-1.3073,7.8467-0.8726,10.025,0.4393
		c0,0-2.1783-6.5442,1.7451-12.2156c3.9294-5.6699,10.4737-6.1031,16.136-17.0056"/>
	<line fill="none" stroke="#FFFFFF" stroke-width="2.684" x1="793.2985" y1="231.0612" x2="801.6041" y2="225.8387"/>
	<line fill="none" stroke="#FFFFFF" stroke-width="2.684" x1="810.3188" y1="249.8119" x2="818.6245" y2="245.9108"/>
	<line fill="none" stroke="#FFFFFF" stroke-width="2.684" x1="825.5774" y1="271.5829" x2="835.1729" y2="267.6503"/>
	<line fill="none" stroke="#FFFFFF" stroke-width="2.684" x1="837.8156" y1="296.4999" x2="847.8202" y2="293.0078"/>
	<line fill="none" stroke="#FFFFFF" stroke-width="2.684" x1="847.3798" y1="325.7271" x2="857.8562" y2="322.6754"/>
	<line fill="none" stroke="#FFFFFF" stroke-width="2.684" x1="853.0742" y1="355.3632" x2="863.9597" y2="354.0733"/>


</g>
</svg>
