<?xml version="1.0" encoding="utf-8"?>
<!DOCTYPE svg PUBLIC "-//W3C//DTD SVG 1.1//EN" "http://www.w3.org/Graphics/SVG/1.1/DTD/svg11.dtd">
<svg version="1.1" id="Ebene_1" xmlns="http://www.w3.org/2000/svg" xmlns:xlink="http://www.w3.org/1999/xlink" x="0px" y="0px"
	 viewBox="-566.7274 -103 1664.797 507.0414" enable-background="new -566.7274 -103 1664.797 507.0414" xml:space="preserve">

<g>

<path fill="#20201E" stroke="#20201E" stroke-width="2.684" d="M-164.6231,212.1847c0,0-3.4903-18.7551-3.4903-21.3746
		c0-2.6146-2.6145-3.0508-5.2323,0.4393c-2.6177,3.4902-14.3924,20.4987-14.3924,20.4987l23.0923,0.409L-164.6231,212.1847z"/>
	<path fill="#20201E" stroke="#20201E" stroke-width="2.684" d="M-321.1002,356.0554c1.1844-8.4583,2.8004-16.5201,4.7682-24.1887
		l6.3214-2.5224l-4.2214-5.0448c2.4056-8.1109,5.1999-15.7427,8.2692-22.9183l5.9788-1.6929l-2.954-5.0555
		c3.2122-6.8268,6.6641-13.1928,10.2462-19.1207l5.5749-1.1199l-1.9985-4.604c4.0157-6.1968,8.1418-11.8564,12.2371-16.9933
		l5.9005-0.6467l-1.5761-4.5961c4.7868-5.6239,9.4537-10.5168,13.7717-14.6966l5.9052-0.3318l-1.0308-4.229
		c10.529-9.5273,17.9686-14.1637,17.9686-14.1637l13.3756,4.0695c0,0,6.3951-3.4903,11.6305-6.9774
		c0,0,3.4871-11.6304,4.6499-18.0287c1.1644-6.3951,4.6515-3.4871,5.8143-1.7436c1.166,1.7436,13.2312,15.1207,13.2312,15.1207
		s7.2171-0.9908,12.3553,0c7.5579,1.4548,11.0497,6.5426,19.7738,14.8303c6.3614,6.0417,10.1773,11.3416,12.3569,17.0084
		c2.1798,5.6699-0.4332,5.6699,0.4347,10.9021c0.8756,5.2354,24.4269,44.4857,27.0413,49.2835
		c2.6223,4.7959,8.9374,19.4724-3.4871,28.7848c-3.4871,2.6207-6.1094,3.9263-8.2862,4.7991c0,0-3.4903-0.8726-4.7959-2.6146
		c-0.2335-0.3134-0.3533-0.5039-0.4102-0.6083c-0.043-0.1229-0.0645-0.1229,0,0c0.1337,0.341,0.4378,1.6161-0.9002,3.2228
		c-2.1798,2.6207-4.9818,2.4241-6.5442,2.6207c-2.3242,0.2888-6.5395-1.7482-10.0298-6.9805
		c-3.4918-5.2382-5.6715-6.9805-8.2877-10.0341c-2.6146-3.0509-17.0499-9.807-22.6817-19.1899
		c-1.3073-2.1752-4.3595-1.3058-6.5395,0.4378c-2.1798,1.7466-14.394,2.1829-19.6262-6.5426c0,0-2.4733,22.9413,7.8514,38.8165
		c17.0071,26.1673,45.7914,32.7067,54.5186,57.1361h-178.9244c0-8.4428,0.4439-16.5415,1.2504-24.3362l5.9449-3.143l-4.9771-4.9079
		L-321.1002,356.0554z"/>
	<path fill="none" stroke="#FFFFFF" stroke-width="2.684" d="M-228.9606,224.014c0,0-76.1763,56.9946-76.1763,159.9189"/>
	<path fill="none" stroke="#20201E" stroke-width="2.684" d="M-132.2498,328.2754
		C-132.3127,328.181-132.3127,328.181-132.2498,328.2754z"/>
	<path fill="none" stroke="#FFFFFF" stroke-width="2.684" d="M-213.2616,263.5603c-1.4517,16.2804,6.1094,27.9093,6.3982,28.9276
		c0,0-18.3203-9.4458-20.0654-21.9534"/>
	<path fill="none" stroke="#FFFFFF" stroke-width="2.684" d="M-206.8751,292.4729c0,0-12.2125,5.9634-21.2254,2.1829"/>
	<path fill="none" stroke="#20201E" stroke-width="2.684" d="M-131.8408,328.9046c0,0-8.1433-10.4737-10.4721-15.2696"/>
	<path fill="none" stroke="#FFFFFF" stroke-width="2.684" d="M-182.0209,232.2882c0,0,13.4108,0.0676,17.8827,7.4122
		c6.1062,10.0342-0.871,11.3401-0.871,11.3401s-6.979,2.1844-11.7764-4.3595c-5.1077-6.9651-0.8726-11.3401-0.8726-11.3401
		l-4.3416-3.0517L-182.0209,232.2882z"/>
	<path fill="none" stroke="#FFFFFF" stroke-width="2.684" d="M-117.0227,306.2213c-4.7991-1.3058-7.8514-0.8756-10.0282,0.4394
		c0,0,2.1768-6.5457-1.7436-12.2156c-3.9294-5.6699-10.4721-6.1047-16.1391-17.0084"/>
	<line fill="none" stroke="#FFFFFF" stroke-width="2.684" x1="-244.3764" y1="238.4231" x2="-252.6507" y2="233.1691"/>
	<line fill="none" stroke="#FFFFFF" stroke-width="2.684" x1="-261.3842" y1="257.1738" x2="-269.671" y2="253.2412"/>
	<line fill="none" stroke="#FFFFFF" stroke-width="2.684" x1="-276.6459" y1="278.9132" x2="-286.2415" y2="274.9806"/>
	<line fill="none" stroke="#FFFFFF" stroke-width="2.684" x1="-288.8653" y1="303.8303" x2="-298.8888" y2="300.3381"/>
	<line fill="none" stroke="#FFFFFF" stroke-width="2.684" x1="-298.4546" y1="333.0575" x2="-308.9248" y2="330.0057"/>
	<line fill="none" stroke="#FFFFFF" stroke-width="2.684" x1="-304.127" y1="362.6936" x2="-315.0282" y2="361.4037"/>

</g>
</svg>
