<?xml version="1.0" encoding="utf-8"?>
<!DOCTYPE svg PUBLIC "-//W3C//DTD SVG 1.1//EN" "http://www.w3.org/Graphics/SVG/1.1/DTD/svg11.dtd">
<svg version="1.1" id="Ebene_1" xmlns="http://www.w3.org/2000/svg" xmlns:xlink="http://www.w3.org/1999/xlink" x="0px" y="0px"
	 viewBox="-566.7274 -103 1664.797 507.0414" enable-background="new -566.7274 -103 1664.797 507.0414" xml:space="preserve">
<g>

<path stroke="#000000" stroke-width="2.684" stroke-linejoin="bevel" d="M618.1242,239.7759
		c2.676-4.5933,1.1306-10.4859-3.4626-13.1635c-4.5838-2.6791-10.4768-1.1306-13.1557,3.461
		c-2.2981,3.9358-1.4809,8.8191,1.6867,11.8224c-13.1066,15.8902-37.0232,44.8758-42.8026,51.9042
		c-1.696-0.7558-3.4534-1.4763-5.2782-2.1506c0.5161-5.3874,4.3044-46.5338,6.3167-68.4149
		c4.3658,0.0999,8.3906-2.7912,9.5336-7.2017c1.3303-5.1461-1.7604-10.3953-6.9035-11.7286
		c-5.1492-1.3303-10.3969,1.7605-11.7301,6.905c-1.1399,4.4073,0.9739,8.8883,4.8421,10.9239
		c-9.4782,21.5064-27.8693,63.2584-27.9152,63.4315c-0.0092,0.0415-0.0031,0.0845-0.0123,0.1259
		c-1.6714-0.2012-3.389-0.3748-5.1339-0.5192c-0.3502-2.3135-8.2371-50.7118-12.3509-75.9183
		c4.7255-1.1045,8.2494-5.3336,8.2494-10.3969c0-5.9065-4.7868-10.6948-10.6949-10.6948c-5.9021,0-10.6917,4.7884-10.6917,10.6948
		c0,5.0633,3.5271,9.2923,8.2522,10.3969c-4.0925,25.092-11.93,73.1623-12.3415,75.8774c-1.8311,0.1444-3.6161,0.3226-5.3644,0.5238
		c-0.0123-0.0599-0.0092-0.1106-0.0276-0.1674c-0.043-0.1721-18.4374-41.9279-27.9092-63.4346
		c3.8649-2.0293,5.9788-6.5118,4.839-10.9223c-1.3334-5.1432-6.5842-8.2339-11.7302-6.9019
		c-5.14,1.3319-8.2339,6.5826-6.9006,11.7255c1.1429,4.4118,5.1646,7.3015,9.5305,7.2002
		c2.0093,21.8584,5.7853,62.9187,6.3167,68.396c-1.7943,0.6498-3.5148,1.3503-5.186,2.0846
		c-6.0065-7.3014-29.6575-35.9692-42.6704-51.7343c3.1737-3.0032,3.994-7.8866,1.696-11.8224
		c-2.676-4.5917-8.5719-6.1402-13.162-3.461c-4.587,2.6776-6.1355,8.5703-3.4563,13.1635c2.295,3.931,6.9529,5.6239,11.1281,4.3382
		c7.8253,20.3804,33.0843,85.9763,34.0501,86.8793h0.0092c0.0184,0.1137,2.5009,16.3848,2.7744,21.7798
		c0.2734,5.3672-2.0616,18.4987-1.8926,18.5755v0.0123c0.0031,0,0.0061-0.0061,0.0092-0.0061
		c18.7321,8.7716,40.0654,13.7028,62.9438,13.7028c23.0917,0,64.7748-14.1206,64.5798-14.2127
		c-2.7252-5.7514-1.6959-39.8578-1.6959-39.8578c0.9647-0.9125,26.5543-65.9578,34.585-86.873
		c4.1213,1.2899,8.7776-0.409,11.0742-4.3416"/>
	<g>
		<path stroke="#FFFFFF" stroke-width="2.9123" stroke-linecap="round" d="M451.2241,367.4442
			c19.6967-8.1172,38.1338-11.6012,60.7258-11.6012c21.6971,0,39.065,3.5916,57.2242,11.1158"/>
		<path stroke="#FFFFFF" stroke-width="2.9123" stroke-linecap="round" d="M565.4272,329.408
			c-16.0224-6.1569-35.6515-9.7793-56.8561-9.7793c-21.396,0-41.1823,3.6869-57.2809,9.9423"/>
</g>
</g>
</svg>