<?xml version="1.0" encoding="utf-8"?>
<!DOCTYPE svg PUBLIC "-//W3C//DTD SVG 1.1//EN" "http://www.w3.org/Graphics/SVG/1.1/DTD/svg11.dtd">
<svg version="1.1" id="Ebene_1" xmlns="http://www.w3.org/2000/svg" xmlns:xlink="http://www.w3.org/1999/xlink" x="0px" y="0px"
	 viewBox="-566.7274 -103 1664.797 507.0414" enable-background="new -566.7274 -103 1664.797 507.0414" xml:space="preserve">

<g>

	<path fill="#FFFFFF" stroke="#20201E" stroke-width="4.1522" stroke-linecap="round" stroke-linejoin="round" d="
		M146.6196,115.0649c-1.9648-1.0707-19.6615-18.4603-36.0762-18.4603c-8.5319,0-15.2236,2.5762-21.1241,4.8465
		c-5.9836,2.3043-11.6336,4.481-19.8122,4.481c-9.532,0-17.4448-2.908-24.4313-5.4736c-5.6302-2.0677-10.4951-3.8543-15.4709-3.8543
		c-4.9739,0-9.8362,1.7866-15.4678,3.8543c-6.9818,2.5654-14.8964,5.4736-24.4297,5.4736c-8.1786,0-13.8302-2.1768-19.8135-4.481
		c-5.9005-2.2705-12.5919-4.8465-21.1254-4.8465c-16.4125,0-34.1099,17.3894-36.0731,18.4603c0,0,7.5317-4.4687,13.7934-4.4687
		s12.4076,4.6622,22.2806,4.6622c5.0677,0,9.1954,1.5899,14.4248,3.6038c6.6241,2.5501,14.8672,5.7237,26.5143,5.7237
		c12.8502,0,23.2609-3.8219,30.8619-6.6131c3.461-1.2735,7.3798-2.7144,9.0359-2.7144c1.6621,0,5.5793,1.4409,9.0387,2.7144
		c7.601,2.7912,18.0101,6.6131,30.8635,6.6131c11.6443,0,19.8889-3.1738,26.5143-5.7237c5.2244-2.0139,9.3552-3.6038,14.4217-3.6038
		c9.8746,0,13.9469-4.6622,22.2822-4.6622c8.4001,0,13.8743,4.4674,13.8743,4.4674L146.6196,115.0649z"/>
	<path fill="#FFFFFF" stroke="#20201E" stroke-width="4.1522" d="M47.8009-74.0026c-0.6667-0.2182-1.3564-0.4025-2.0585-0.5499
		c3.3487-1.2443,5.7438-4.458,5.7438-8.2431c0-4.8576-3.9358-8.793-8.793-8.793s-8.7946,3.9358-8.7946,8.793
		c0,3.3751,1.9018,6.2985,4.693,7.7762c-25.2395,1.6391-63.5542,34.887-64.7749,91.18
		c-0.4854,22.3668,2.3504,40.6758,10.1619,53.9743l84.4505-0.6022C80.7754,53.9558,92.1293,34.2399,92.1293,8.3885
		c0-34.3931-25.1058-76.1039-44.3284-82.415V-74.0026z"/>
	<path fill="#FFFFFF" stroke="#20201E" stroke-width="4.1522" d="M73.0955-10.7819c-9.2847-30.2965-33.7953-59.955-55.4089-63.8719
		c3.2121-1.3103,5.4736-4.4627,5.4736-8.1402c0-4.8576-3.9358-8.793-8.793-8.793c-4.856,0-8.7946,3.9358-8.7946,8.793
		c0,3.4302,1.9709,6.3982,4.839,7.8467C8.92-74.7845,7.456-74.4742,6.0244-74.0011c-19.1745,6.3107-43.7306,48.7078-43.7306,82.393
		c0,24.8462,10.0666,46.2507,21.6847,61.7452l84.4505-0.6022c7.991-13.3394,17.7754-37.5014,4.6562-80.3228L73.0955-10.7819z"/>
	<path fill="#FFFFFF" stroke="#000000" stroke-width="3.1886" stroke-linejoin="bevel" d="M68.1561,104.7772
		c-10.6118-4.8682-25.645-8.3337-40.7324-8.3337c-15.0943,0-29.2243,3.0723-41.8996,8.6455
		c12.6749,5.5701,26.5697,8.81,41.6605,8.81c15.1012,0,28.3148-3.5551,40.9935-9.1236L68.1561,104.7772z"/>
	<path fill="#FFFFFF" stroke="#20201E" stroke-width="4.1522" stroke-linejoin="bevel" d="M63.7516,75.4241l-0.0077-0.0108
		c-10.2817-4.4196-22.1101-8.1248-37.4133-8.1248c-15.3171,0-27.1287,3.7083-37.4133,8.1355c0,0-2.3043,14.9685-2.527,18.348
		c-0.3472,5.1816-0.8679,11.3124-0.8679,11.3124c12.6749-5.5733,26.8047-8.6455,41.8996-8.6455
		c14.7979,0,28.238,2.9602,40.7324,8.3337c-0.4486-4.1478-0.9678-8.2921-2.0032-14.5107c-0.5663-3.3034-2.4225-14.881-2.4225-14.881
		L63.7516,75.4241z"/>
	<path fill="#FFFFFF" stroke="#20201E" stroke-width="4.1522" stroke-linejoin="bevel" d="M-14.4917,105.0917
		c12.6749-5.5733,26.8047-8.6455,41.8996-8.6455c14.7979,0,28.2381,2.9602,40.7324,8.3337
		c-0.3211-3.4701-1.0891-5.6331-1.573-10.0618c-12.5551-4.3982-25.2839-6.6423-39.3544-6.6423
		c-14.2298,0-28.3302,2.5838-41.0061,7.0771c-0.0629,3.9012-0.7236,9.9417-0.7236,9.9417L-14.4917,105.0917z"/>
	<path fill="#FFFFFF" stroke="#20201E" stroke-width="4.1522" d="M-11.0939,75.4241c10.2833-4.424,22.1057-8.2125,37.4259-8.3107
		c13.0437-0.086,27.1334,3.8804,37.4165,8.3044c0.5638-0.5653,2.9525-1.2904,4.6823-5.8898
		c-8.647-9.3615-21.5035-14.2512-42.0978-14.2512c-21.9751,0-33.7072,5.4795-42.3527,14.8533
		c1.6989,4.5933,4.3416,4.7191,4.9079,5.2854L-11.0939,75.4241z"/>
	<line fill="none" stroke="#000000" stroke-width="3.1886" x1="26.3446" y1="55.2892" x2="26.3446" y2="67.1185"/>
	<polygon fill="#FFFFFF" stroke="#000000" stroke-width="2.4221" points="48.2099,-7.9787 44.0886,-3.8573 23.3873,-3.8573 
		23.3873,-22.5262 27.5087,-26.6476 19.203,-34.947 10.8973,-26.6476 15.0501,-22.4822 15.0501,-3.8573 -5.7455,-3.8573 
		-9.8669,-7.9787 -18.1726,0.327 -9.8669,8.6326 -5.714,4.4798 15.0501,4.4798 15.0501,27.289 10.8973,31.4418 19.203,39.7475 
		27.5087,31.4418 23.3873,27.3204 23.3873,4.4798 44.0571,4.4798 48.2099,8.6326 56.5156,0.327 	"/>

</g>
</svg>
