<?xml version="1.0" encoding="utf-8"?>
<!DOCTYPE svg PUBLIC "-//W3C//DTD SVG 1.1//EN" "http://www.w3.org/Graphics/SVG/1.1/DTD/svg11.dtd">
<svg version="1.1" id="Ebene_1" xmlns="http://www.w3.org/2000/svg" xmlns:xlink="http://www.w3.org/1999/xlink" x="0px" y="0px"
	 viewBox="-566.7274 -103 1664.797 507.0414" enable-background="new -566.7274 -103 1664.797 507.0414" xml:space="preserve">

<g>

	<path fill="#FFFFFF" stroke="#20201E" stroke-width="3.4947" d="M-164.4658-59.9081c0,0-3.4903-18.7551-3.4903-21.3714
		s-2.613-3.0539-5.2323,0.4363c-2.6176,3.4887-14.3924,20.4987-14.3924,20.4987l23.0923,0.4342L-164.4658-59.9081z"/>
	<path fill="#FFFFFF" stroke="#20201E" stroke-width="3.4947" d="M-320.9492,83.9501c1.1829-8.4583,2.802-16.5217,4.7698-24.1872
		l6.3199-2.5224l-4.2183-5.0479c2.4026-8.1081,5.1971-15.7427,8.2676-22.9199l5.9804-1.6898l-2.9571-5.057
		c3.2122-6.8251,6.664-13.1912,10.2449-19.1194l5.5764-1.1199l-2.0001-4.604c4.0172-6.1969,8.1433-11.8564,12.237-16.9933
		l5.9021-0.6467l-1.5761-4.5961c4.7899-5.6255,9.4584-10.5183,13.7748-14.6982l5.9037-0.3318l-1.0323-4.229
		c10.529-9.5273,17.9686-14.1637,17.9686-14.1637l13.3756,4.0723c0,0,6.3951-3.4903,11.6305-6.979
		c0,0,3.4871-11.6305,4.6483-18.0271c1.166-6.3966,4.6531-3.4903,5.8159-1.7451c1.166,1.7451,13.2312,15.1176,13.2312,15.1176
		s7.2184-0.9862,12.3585,0c7.5566,1.4578,11.0466,6.5442,19.7738,14.8303c6.3582,6.0449,10.1741,11.3432,12.3541,17.01
		c2.1798,5.6699-0.4347,5.6699,0.4347,10.9037c0.8772,5.2338,24.4269,44.4857,27.0397,49.2835
		c2.6223,4.7975,8.9406,19.4696-3.4855,28.7848c-3.4871,2.6176-6.1078,3.9295-8.2846,4.7975c0,0-3.4918-0.8679-4.7975-2.613
		c-0.2335-0.3118-0.3533-0.5023-0.4102-0.6083c-0.0415-0.1167-0.0645-0.1244,0,0c0.1337,0.3395,0.4378,1.6145-0.9002,3.2213
		c-2.1814,2.6192-4.9818,2.4241-6.541,2.6192c-2.3273,0.2919-6.5426-1.742-10.0329-6.979
		c-3.4903-5.2338-5.6699-6.9806-8.2893-10.0329c-2.613-3.0524-17.0487-9.807-22.6802-19.1899
		c-1.3073-2.1767-4.3595-1.3088-6.5395,0.4378c-2.1798,1.7451-14.394,2.1829-19.6247-6.5442c0,0-2.4748,22.9444,7.8498,38.8196
		c17.0071,26.1688,45.7945,32.7068,54.5217,57.1362h-178.8961c0-8.4413,0.4455-16.5462,1.2505-24.3423l5.9464-3.1369l-4.9803-4.845
		L-320.9492,83.9501z"/>
	<path fill="none" stroke="#20201E" stroke-width="2.684" d="M-228.8033-48.0788c0,0-76.1731,56.9946-76.1731,159.9221"/>
	<path fill="none" stroke="#20201E" stroke-width="2.684" d="M-132.0925,56.8622
		C-132.1554,56.7364-132.1554,56.7364-132.0925,56.8622z"/>
	<path fill="none" stroke="#20201E" stroke-width="2.684" d="M-213.1043-8.545c-1.4532,16.2788,6.1078,27.9093,6.3982,28.9261
		c0,0-18.3219-9.4474-20.0639-21.9534"/>
	<path fill="none" stroke="#20201E" stroke-width="2.684" d="M-206.7178,20.399c0,0-12.2156,5.965-21.227,2.1845"/>
	<path fill="none" stroke="#20201E" stroke-width="2.684" d="M-131.6835,57.46c0,0-8.1433-10.4689-10.4721-15.2664"/>
	<path fill="none" stroke="#20201E" stroke-width="2.684" d="M-181.8636-39.7888c0,0,13.4108,0.063,17.8843,7.4122
		c6.1031,10.0329-0.8725,11.3401-0.8725,11.3401s-6.9774,2.1829-11.7765-4.3595c-5.1077-6.9667-0.8725-11.3401-0.8725-11.3401
		l-4.3416-3.0549L-181.8636-39.7888z"/>
	<path fill="none" stroke="#20201E" stroke-width="2.684" d="M-116.8654,34.7767c-4.8022-1.3073-7.8529-0.8695-10.0297,0.4378
		c0,0,2.1768-6.5426-1.7451-12.2141c-3.9294-5.6699-10.4689-6.1078-16.1391-17.01"/>
	<line fill="none" stroke="#20201E" stroke-width="2.684" x1="-244.2192" y1="-33.6854" x2="-252.4934" y2="-38.9174"/>
	<line fill="none" stroke="#20201E" stroke-width="2.684" x1="-261.2301" y1="-14.9316" x2="-269.52" y2="-18.8548"/>
	<line fill="none" stroke="#20201E" stroke-width="2.684" x1="-276.4917" y1="6.8394" x2="-286.0873" y2="2.9068"/>
	<line fill="none" stroke="#20201E" stroke-width="2.684" x1="-288.708" y1="31.725" x2="-298.7377" y2="28.2328"/>
	<line fill="none" stroke="#20201E" stroke-width="2.684" x1="-298.3004" y1="60.9521" x2="-308.7706" y2="57.9004"/>
	<line fill="none" stroke="#20201E" stroke-width="2.684" x1="-303.9728" y1="90.6198" x2="-314.8741" y2="89.2984"/>
	

</g>
</svg>
